PathFileType   4   (X/Y/Z)
DataRate  CameraRate  NumFrames  NumMarkers  Units  OrigDataRate  OrigDataStartFrame  OrigNumFrames  
  120.0      120.0        9         37         mm      120.0          17        134
Frame#      Time                    midhip                           hip_r                           hip_l                          knee_r                          knee_l                         ankle_r                         ankle_l                         midasis                          asis_r                          asis_l                          psis_r                          psis_l                    epicondLat_r                    epicondLat_l                    epicondMed_r                    epicondMed_l                  malleolusLat_r                  malleolusLat_l                 malleolusMedv_r                 malleolusMedv_l                    sternalnotch                  xyphoidprocess                            neck                           toe_r                           toe_l                     thighwand_r                     thighwand_l                     upperleg1_r                     upperleg1_l                     upperleg2_r                     upperleg2_l                     shankwand_r                     shankwand_l                     lowerleg1_r                     lowerleg1_l                   subclavicle_r                   subclavicle_l            
              X1          Y1          Z1          X2          Y2          Z2          X3          Y3          Z3          X4          Y4          Z4          X5          Y5          Z5          X6          Y6          Z6          X7          Y7          Z7          X8          Y8          Z8          X9          Y9          Z9          X10          Y10          Z10          X11          Y11          Z11          X12          Y12          Z12          X13          Y13          Z13          X14          Y14          Z14          X15          Y15          Z15          X16          Y16          Z16          X17          Y17          Z17          X18          Y18          Z18          X19          Y19          Z19          X20          Y20          Z20          X21          Y21          Z21          X22          Y22          Z22          X23          Y23          Z23          X24          Y24          Z24          X25          Y25          Z25          X26          Y26          Z26          X27          Y27          Z27          X28          Y28          Z28          X29          Y29          Z29          X30          Y30          Z30          X31          Y31          Z31          X32          Y32          Z32          X33          Y33          Z33          X34          Y34          Z34          X35          Y35          Z35          X36          Y36          Z36          X37          Y37          Z37          

	17	0.28333	1490.734	769.971	-249.472	1484.389	767.074	-192.470	1497.079	772.868	-306.475	1511.009	407.873	-151.697	1470.665	424.599	-289.007	1262.659	154.994	-134.071	1482.692	65.545	-266.113	1525.014	842.497	-242.713	1528.090	843.028	-131.574	1521.939	841.966	-353.852	1350.216	870.899	-206.313	1351.122	868.638	-259.879	1514.391	415.983	-92.015	1495.847	413.584	-346.813	1527.622	401.265	-212.758	1497.062	423.288	-228.052	1258.221	161.381	-97.386	1472.303	63.610	-301.050	1261.205	149.768	-167.607	1482.202	68.603	-232.570	1513.337	1197.559	-258.849	1526.309	1096.217	-260.787	1401.726	1263.644	-258.665	1314.098	92.830	-127.715	1571.745	46.203	-277.805	1627.353	571.940	-135.480	1590.290	569.605	-375.593	1566.983	602.810	-103.499	1568.997	616.555	-310.668	1568.215	544.140	-103.229	1563.874	560.002	-299.332	1431.681	166.345	-108.337	1466.349	159.435	-396.963	1365.113	207.772	-130.063	1474.761	155.957	-318.147	1513.736	1197.964	-202.229	1518.311	1197.938	-309.078
	18	0.29167	1497.297	770.507	-250.255	1490.938	767.753	-193.247	1503.657	773.261	-307.262	1522.728	408.795	-152.293	1474.316	424.482	-289.262	1279.514	152.192	-134.555	1482.687	65.483	-265.963	1531.491	843.052	-243.634	1534.589	843.920	-132.599	1528.393	842.184	-354.670	1356.764	871.294	-206.928	1357.753	868.806	-260.402	1526.966	416.960	-92.705	1498.332	413.416	-347.049	1538.579	401.193	-210.162	1501.178	422.679	-229.069	1274.979	158.533	-97.874	1472.345	63.580	-300.916	1278.138	147.170	-168.121	1482.383	68.615	-232.460	1520.044	1197.755	-259.718	1532.862	1096.390	-261.467	1408.613	1263.968	-259.865	1333.031	92.113	-127.688	1571.820	46.235	-277.796	1637.249	574.690	-136.363	1594.507	568.741	-376.127	1576.733	604.312	-104.102	1573.832	615.624	-311.412	1578.615	546.395	-103.045	1568.478	559.372	-300.264	1448.289	166.312	-108.877	1467.247	159.426	-397.002	1381.151	206.549	-130.338	1475.713	155.866	-318.207	1520.476	1198.268	-203.251	1524.990	1198.032	-309.797
	19	0.30000	1503.818	770.950	-251.059	1497.472	768.328	-194.043	1510.164	773.572	-308.074	1534.672	410.109	-152.858	1477.555	424.810	-289.371	1296.815	149.002	-135.188	1482.732	65.413	-265.805	1537.912	843.521	-244.563	1541.046	844.713	-133.641	1534.777	842.329	-355.484	1363.215	871.625	-207.544	1364.432	868.816	-260.867	1539.311	418.015	-93.321	1500.821	413.259	-347.221	1549.919	402.988	-210.571	1504.298	421.761	-230.950	1292.164	155.262	-98.508	1472.397	63.550	-300.762	1295.537	143.401	-168.659	1482.523	68.469	-232.303	1526.539	1197.945	-260.299	1539.269	1096.563	-261.698	1415.438	1264.101	-261.008	1352.385	91.078	-127.814	1571.923	46.281	-277.770	1646.871	577.402	-137.045	1598.622	567.819	-376.608	1586.258	605.946	-104.176	1578.300	614.948	-311.743	1588.899	548.704	-103.332	1572.547	558.468	-301.006	1465.262	166.219	-109.514	1468.043	159.426	-396.976	1397.355	205.077	-131.355	1476.536	155.673	-318.076	1527.014	1198.657	-203.934	1531.445	1198.040	-310.283
	20	0.30833	1510.302	771.271	-251.795	1504.009	768.786	-194.768	1516.596	773.755	-308.823	1547.482	411.627	-153.466	1480.603	425.557	-289.425	1314.571	145.445	-135.941	1482.832	65.350	-265.629	1544.273	843.888	-245.480	1547.463	845.412	-134.684	1541.083	842.364	-356.277	1369.567	871.877	-208.164	1371.087	868.711	-261.292	1551.410	419.150	-93.870	1503.350	413.114	-347.330	1562.721	406.338	-214.358	1507.259	420.653	-233.347	1309.779	151.596	-99.261	1472.472	63.533	-300.581	1313.360	139.412	-169.311	1482.644	68.369	-232.123	1533.067	1198.070	-260.563	1545.548	1096.652	-261.537	1422.180	1264.469	-261.748	1372.151	89.775	-128.078	1572.043	46.335	-277.711	1656.225	580.060	-137.544	1602.647	566.844	-377.028	1595.484	607.895	-104.315	1582.724	614.438	-311.774	1599.169	550.828	-104.520	1576.521	557.537	-301.666	1482.569	166.111	-110.216	1468.781	159.430	-396.882	1413.768	203.191	-132.126	1477.271	155.621	-317.884	1533.449	1199.010	-203.887	1538.060	1197.948	-310.854
	21	0.31667	1516.713	771.476	-252.447	1510.483	769.154	-195.405	1522.943	773.798	-309.488	1557.502	413.436	-154.035	1483.270	425.605	-289.559	1332.773	141.557	-136.790	1482.991	65.309	-265.429	1550.572	844.141	-246.368	1553.842	846.019	-135.712	1547.303	842.263	-357.025	1375.826	872.040	-208.779	1377.614	868.553	-261.694	1563.257	420.357	-94.369	1505.945	412.980	-347.382	1573.423	409.469	-218.161	1510.754	420.707	-233.043	1327.817	147.577	-100.109	1472.586	63.547	-300.370	1331.535	135.300	-170.085	1482.738	68.229	-231.903	1539.723	1198.066	-261.250	1552.001	1096.620	-261.876	1428.732	1264.817	-262.214	1392.323	88.263	-128.464	1572.162	46.391	-277.604	1665.339	582.645	-137.889	1606.602	565.830	-377.391	1604.480	609.646	-104.882	1587.575	613.659	-312.323	1608.418	552.305	-105.907	1580.888	556.752	-302.045	1500.171	166.032	-110.949	1469.515	159.436	-396.721	1430.224	201.351	-132.866	1477.967	155.703	-317.514	1540.034	1199.196	-204.255	1544.783	1197.764	-311.856
	22	0.32500	1523.018	771.546	-253.002	1516.844	769.424	-195.946	1529.191	773.668	-310.057	1558.794	416.855	-154.532	1484.364	426.198	-289.654	1351.407	137.383	-137.712	1483.218	65.310	-265.205	1556.814	844.280	-247.210	1560.180	846.536	-136.703	1553.447	842.024	-357.718	1381.981	872.120	-209.356	1383.950	868.394	-262.077	1574.841	421.622	-94.845	1508.621	412.853	-347.381	1575.639	412.857	-220.458	1512.358	422.218	-231.255	1346.259	143.259	-101.035	1472.760	63.605	-300.133	1350.298	130.222	-170.832	1482.959	68.093	-231.660	1546.375	1198.015	-262.310	1558.401	1096.539	-262.831	1435.609	1264.999	-262.789	1412.878	86.589	-128.956	1572.259	46.435	-277.436	1674.236	585.135	-138.117	1610.516	564.798	-377.715	1613.158	611.180	-105.240	1592.570	612.990	-312.948	1614.832	553.000	-106.673	1584.782	555.947	-301.954	1518.032	166.026	-111.679	1470.300	159.444	-396.502	1446.916	199.522	-134.350	1478.787	155.779	-317.100	1546.630	1199.199	-205.236	1551.485	1197.653	-312.991
	23	0.33333	1529.240	771.467	-253.450	1523.129	769.573	-196.380	1535.350	773.360	-310.520	1569.750	417.727	-154.924	1485.595	426.813	-289.663	1370.452	132.976	-138.695	1483.502	65.364	-264.954	1563.006	844.319	-247.999	1566.473	846.967	-137.633	1559.539	841.670	-358.366	1388.029	872.143	-209.864	1390.067	868.272	-262.450	1586.152	422.920	-95.328	1511.364	412.723	-347.332	1586.144	413.642	-219.251	1513.769	423.432	-229.791	1365.078	138.705	-102.027	1473.000	63.720	-299.871	1369.728	125.057	-171.697	1483.107	68.115	-231.376	1553.079	1197.967	-262.753	1564.915	1096.470	-263.520	1442.709	1265.009	-263.788	1433.783	84.787	-129.538	1572.313	46.455	-277.204	1682.934	587.513	-138.261	1614.426	563.771	-378.014	1621.457	612.931	-105.008	1597.254	612.231	-313.191	1623.965	554.778	-106.229	1588.422	555.112	-301.656	1536.112	166.139	-112.373	1471.174	159.451	-396.238	1464.188	197.791	-135.925	1479.522	155.805	-316.802	1553.223	1198.995	-205.899	1558.288	1197.733	-313.200
	24	0.34167	1535.414	771.296	-253.835	1529.374	769.628	-196.750	1541.455	772.964	-310.919	1580.777	419.243	-155.433	1488.445	426.285	-289.662	1389.888	128.402	-139.736	1483.806	65.472	-264.676	1569.160	844.281	-248.738	1572.718	847.322	-138.489	1565.602	841.241	-358.988	1393.972	872.132	-210.284	1396.031	868.187	-262.810	1597.184	424.223	-95.832	1514.161	412.582	-347.239	1596.701	416.587	-221.325	1517.359	423.696	-228.246	1384.251	133.982	-103.084	1473.283	63.888	-299.590	1389.515	120.338	-172.712	1483.155	68.184	-231.047	1559.821	1197.925	-262.679	1571.794	1096.445	-263.612	1449.448	1264.793	-264.879	1454.995	82.876	-130.190	1572.306	46.438	-276.929	1691.437	589.766	-138.365	1618.371	562.769	-378.294	1629.955	614.884	-104.458	1601.722	611.071	-313.449	1633.276	556.440	-106.536	1592.604	554.489	-301.522	1554.379	166.409	-113.008	1472.156	159.459	-395.949	1481.713	195.860	-136.807	1480.208	155.827	-316.474	1559.968	1198.856	-206.090	1565.026	1197.784	-312.859
	25	0.35000	1541.570	771.111	-254.216	1535.584	769.642	-197.120	1547.555	772.580	-311.312	1590.745	420.609	-156.007	1491.930	425.811	-289.581	1409.709	123.726	-140.830	1484.092	65.619	-264.377	1575.282	844.196	-249.431	1578.913	847.613	-139.271	1571.650	840.779	-359.590	1399.823	872.092	-210.611	1401.964	868.120	-263.160	1607.942	425.508	-96.364	1517.018	412.421	-347.107	1606.589	418.600	-222.529	1521.455	423.239	-227.985	1403.770	129.159	-104.204	1473.581	64.094	-299.297	1409.635	115.716	-173.795	1483.441	68.276	-230.743	1566.298	1197.763	-263.087	1578.175	1096.271	-263.843	1456.097	1264.673	-265.552	1476.469	80.875	-130.887	1572.241	46.377	-276.645	1699.766	591.894	-138.444	1622.383	561.803	-378.547	1638.443	616.560	-104.478	1606.148	609.927	-313.687	1642.231	557.891	-106.931	1596.948	553.925	-301.771	1572.810	166.858	-113.567	1473.247	159.472	-395.650	1499.358	193.753	-137.342	1481.238	155.926	-316.153	1566.342	1198.781	-206.462	1571.596	1197.540	-313.295
